<svg width="18" height="18" viewBox="0 0 18 18" fill="none" xmlns="http://www.w3.org/2000/svg">
<g id="Layer_1">
<path id="Vector" d="M15.3809 13.5911L10.7895 8.99971L15.3809 4.4083C15.8766 3.9126 15.8766 3.11455 15.3809 2.61885C14.8852 2.12314 14.0872 2.12314 13.5915 2.61885L9.00007 7.21025L4.40867 2.61885C3.91296 2.12314 3.11492 2.12314 2.61921 2.61885C2.12351 3.11455 2.12351 3.9126 2.61921 4.4083L7.21062 8.99971L2.61921 13.5911C2.12351 14.0868 2.12351 14.8849 2.61921 15.3806C3.11492 15.8763 3.91296 15.8763 4.40867 15.3806L9.00007 10.7892L13.5915 15.3806C14.0872 15.8763 14.8852 15.8763 15.3809 15.3806C15.8731 14.8849 15.8731 14.0833 15.3809 13.5911Z" fill="#010101"/>
</g>
</svg>
