<svg width="18" height="18" viewBox="0 0 18 18" fill="none" xmlns="http://www.w3.org/2000/svg">
<g id="Arrow">
<path id="Vector" d="M8.99995 1.8703C12.9375 1.8703 16.1296 5.06249 16.1296 8.99999C16.1296 12.9375 12.9375 16.1297 8.99995 16.1297C5.06245 16.1297 1.87026 12.9375 1.87026 8.99999C1.87026 5.06249 5.06245 1.8703 8.99995 1.8703ZM8.99995 15.4547C12.5578 15.4547 15.4546 12.5578 15.4546 8.99999C15.4546 5.44218 12.5578 2.5453 8.99995 2.5453C5.44214 2.5453 2.54526 5.44218 2.54526 8.99999C2.54526 12.5578 5.44214 15.4547 8.99995 15.4547Z" fill="#7355A8"/>
<path id="Vector_2" d="M5.61099 8.66251H11.5735L9.43599 6.52501C9.30942 6.39845 9.30942 6.17345 9.43599 6.04689C9.56255 5.92032 9.78755 5.92032 9.91411 6.04689L12.6422 8.76095C12.6704 8.78907 12.6985 8.83126 12.7125 8.87345C12.7407 8.95782 12.7407 9.05626 12.7125 9.12657C12.6985 9.16876 12.6704 9.21095 12.6422 9.23907L9.91411 11.9531C9.8438 12.0234 9.75942 12.0516 9.67505 12.0516C9.59067 12.0516 9.5063 12.0234 9.43599 11.9531C9.30942 11.8266 9.30942 11.6016 9.43599 11.475L11.5735 9.33751H5.59692C5.41411 9.33751 5.25942 9.18282 5.25942 9.00001C5.25942 8.8172 5.41411 8.66251 5.61099 8.66251Z" fill="#7355A8"/>
</g>
</svg>
